<?xml version="1.0" encoding="UTF-8" standalone="no"?>
<!-- Created with Inkscape (http://www.inkscape.org/) -->

<svg
   xmlns:dc="http://purl.org/dc/elements/1.1/"
   xmlns:cc="http://creativecommons.org/ns#"
   xmlns:rdf="http://www.w3.org/1999/02/22-rdf-syntax-ns#"
   xmlns:svg="http://www.w3.org/2000/svg"
   xmlns="http://www.w3.org/2000/svg"
   xmlns:sodipodi="http://sodipodi.sourceforge.net/DTD/sodipodi-0.dtd"
   xmlns:inkscape="http://www.inkscape.org/namespaces/inkscape"
   width="64"
   height="64"
   viewBox="0 0 64 64"
   id="svg2"
   version="1.1"
   inkscape:version="0.92.2 2405546, 2018-03-11"
   sodipodi:docname="retrotouch.svg">
  <defs
     id="defs4">
    <filter
       style="color-interpolation-filters:sRGB"
       id="filter3798"
       inkscape:label="Glow"
       inkscape:menu="Shadows and Glows"
       inkscape:menu-tooltip="Glow of object's own color at the edges">
      <feGaussianBlur
         id="feGaussianBlur3800"
         stdDeviation="5"
         result="result91" />
      <feComposite
         id="feComposite3802"
         in2="result91"
         in="SourceGraphic"
         operator="over" />
    </filter>
    <linearGradient
       id="linearGradient3759">
      <stop
         style="stop-color:#ffffff;stop-opacity:1;"
         offset="0"
         id="stop3761" />
      <stop
         style="stop-color:#ffffff;stop-opacity:0;"
         offset="1"
         id="stop3763" />
    </linearGradient>
    <filter
       style="color-interpolation-filters:sRGB"
       id="filter4192"
       inkscape:label="Glow"
       inkscape:menu="Shadows and Glows"
       inkscape:menu-tooltip="Glow of object's own color at the edges">
      <feGaussianBlur
         id="feGaussianBlur4194"
         stdDeviation="5"
         result="result91" />
      <feComposite
         id="feComposite4196"
         in2="result91"
         in="SourceGraphic"
         operator="over" />
    </filter>
    <filter
       style="color-interpolation-filters:sRGB"
       id="filter3798-5"
       inkscape:label="Glow"
       inkscape:menu="Shadows and Glows"
       inkscape:menu-tooltip="Glow of object's own color at the edges">
      <feGaussianBlur
         id="feGaussianBlur3800-8"
         stdDeviation="5"
         result="result91" />
      <feComposite
         id="feComposite3802-8"
         in2="result91"
         in="SourceGraphic"
         operator="over" />
    </filter>
    <filter
       style="color-interpolation-filters:sRGB"
       id="filter3798-5-2"
       inkscape:label="Glow"
       inkscape:menu="Shadows and Glows"
       inkscape:menu-tooltip="Glow of object's own color at the edges">
      <feGaussianBlur
         id="feGaussianBlur3800-8-4"
         stdDeviation="5"
         result="result91" />
      <feComposite
         id="feComposite3802-8-9"
         in2="result91"
         in="SourceGraphic"
         operator="over" />
    </filter>
  </defs>
  <sodipodi:namedview
     id="base"
     pagecolor="#ffffff"
     bordercolor="#666666"
     borderopacity="1.0"
     inkscape:pageopacity="0.0"
     inkscape:pageshadow="2"
     inkscape:zoom="22.4"
     inkscape:cx="49.952766"
     inkscape:cy="39.612687"
     inkscape:document-units="px"
     inkscape:current-layer="layer2"
     showgrid="false"
     units="px"
     inkscape:window-width="1385"
     inkscape:window-height="968"
     inkscape:window-x="1374"
     inkscape:window-y="5"
     inkscape:window-maximized="0"
     fit-margin-top="0"
     fit-margin-left="0"
     fit-margin-right="0"
     fit-margin-bottom="0" />
  <metadata
     id="metadata7">
    <rdf:RDF>
      <cc:Work
         rdf:about="">
        <dc:format>image/svg+xml</dc:format>
        <dc:type
           rdf:resource="http://purl.org/dc/dcmitype/StillImage" />
        <dc:title />
      </cc:Work>
    </rdf:RDF>
  </metadata>
  <g
     inkscape:label="Background"
     inkscape:groupmode="layer"
     id="layer1"
     transform="translate(-240.24047,-744.63652)"
     style="display:inline" />
  <g
     inkscape:groupmode="layer"
     id="layer3"
     inkscape:label="Buttons"
     style="display:inline"
     transform="translate(0,-448)" />
  <g
     inkscape:groupmode="layer"
     id="layer2"
     inkscape:label="Screen"
     style="display:inline"
     transform="translate(0,-448)">
    <path
       style="display:inline;fill:#959b9f;fill-opacity:1;fill-rule:evenodd;stroke:#0c262b;stroke-width:0.85047162;stroke-linecap:butt;stroke-linejoin:miter;stroke-miterlimit:4;stroke-dasharray:none;stroke-opacity:1"
       d="m 30.133021,451.71647 c -4.555719,0.0643 -14.174047,-0.0242 -18.388466,0.21115 -2.9853975,0.17955 -3.9823,0.20166 -6.6793466,1.69944 -1.3724327,0.7622 -2.5888903,1.99045 -3.1516984,3.15686 -1.24653652,3.66728 -0.5268991,10.7472 -0.5268991,21.67973 -0.1223392,3.95231 -0.56014541,25.8981 1.9775441,28.59333 1.974292,1.84588 3.2297358,2.73866 28.643389,2.73866 25.413644,0 26.669118,-0.89279 28.643409,-2.73867 2.537685,-2.69523 2.099884,-24.64102 1.97754,-28.59332 0,-10.20945 0.719687,-18.01245 -0.52688,-21.67973 -0.562778,-1.16641 -1.77926,-2.39466 -3.151698,-3.15686 -2.697047,-1.49773 -7.576955,-1.55078 -10.562322,-1.73034 -4.213545,-0.2361 -13.561282,-0.11662 -18.110377,-0.18025 -0.04861,-5e-4 -0.09561,5e-4 -0.1442,0 z"
       id="path4166-6"
       inkscape:connector-curvature="0"
       sodipodi:nodetypes="ccccccccccccccc" />
    <path
       style="display:inline;fill:#959b9f;fill-opacity:1;fill-rule:evenodd;stroke:#0c262b;stroke-width:0.85047162;stroke-linecap:butt;stroke-linejoin:miter;stroke-miterlimit:4;stroke-dasharray:none;stroke-opacity:1"
       d="m 60.363832,454.55703 c -0.334226,-1.19533 -0.639272,-3.24153 -4.7742,-3.83713 -1.71637,-0.23783 -4.07937,-0.64848 -6.290997,-0.47245 -0.82116,0.0991 -1.130677,1.11286 -1.344017,1.58185 4.019337,0.25602 9.448181,0.21409 12.409214,2.72773 z"
       id="RB"
       inkscape:connector-curvature="0"
       sodipodi:nodetypes="ccccc" />
    <path
       style="display:inline;fill:#959b9f;fill-opacity:1;fill-rule:evenodd;stroke:#0c262b;stroke-width:0.85047162;stroke-linecap:butt;stroke-linejoin:miter;stroke-miterlimit:4;stroke-dasharray:none;stroke-opacity:1"
       d="m 3.3531096,454.55703 c 0.3342308,-1.19533 0.6393019,-3.24153 4.7742246,-3.83713 1.7163201,-0.23783 4.0793508,-0.64848 6.2910028,-0.47245 0.821129,0.0991 1.130646,1.11286 1.343987,1.58185 -4.019333,0.25602 -9.4481812,0.21409 -12.4092144,2.72773 z"
       id="LB"
       inkscape:connector-curvature="0"
       sodipodi:nodetypes="ccccc"
       LT="path4420-4" />
    <g
       style="display:inline;stroke:#dfeff7;stroke-opacity:1;fill:#121c21;fill-opacity:1"
       id="g4557"
       transform="matrix(0.12149595,0,0,0.12149595,-43.332814,430.31111)">
      <path
         id="path4168-1"
         d="m 478.15228,552.42752 a 40.917964,40.406495 0 0 1 -40.91802,40.40651 40.917964,40.406495 0 0 1 -40.91803,-40.40651 40.917964,40.406495 0 0 1 40.91803,-40.40651 40.917964,40.406495 0 0 1 40.91802,40.40651 z"
         style="color:#000000;display:inline;overflow:visible;visibility:visible;opacity:1;fill:#121c21;fill-opacity:1;fill-rule:evenodd;stroke:#dfeff7;stroke-width:4;stroke-linecap:butt;stroke-linejoin:miter;stroke-miterlimit:4;stroke-dasharray:none;stroke-dashoffset:0;stroke-opacity:1;marker:none;enable-background:accumulate"
         inkscape:connector-curvature="0" />
      <ellipse
         ry="28.86274"
         rx="29.228086"
         cy="552.40436"
         cx="437.09177"
         id="path4168-1-2"
         style="color:#000000;display:inline;overflow:visible;visibility:visible;opacity:1;fill:#121c21;fill-opacity:1;fill-rule:evenodd;stroke:#dfeff7;stroke-width:6.30857086;stroke-linecap:butt;stroke-linejoin:miter;stroke-miterlimit:4;stroke-dasharray:none;stroke-dashoffset:0;stroke-opacity:1;marker:none;enable-background:accumulate" />
    </g>
    <circle
       r="7.0622287"
       cy="498.35754"
       cx="52.071404"
       id="RPAD"
       style="color:#000000;display:inline;overflow:visible;visibility:visible;opacity:1;fill:#121c21;fill-opacity:1;fill-rule:evenodd;stroke:#dfeff7;stroke-width:0.48598379;stroke-linecap:butt;stroke-linejoin:miter;stroke-miterlimit:4;stroke-dasharray:none;stroke-dashoffset:0;stroke-opacity:1;marker:none;enable-background:accumulate" />
    <g
       style="display:inline;stroke:#dfeff7;stroke-opacity:1;fill:#121c21;fill-opacity:1"
       id="g4683"
       transform="matrix(0.12149595,0,0,0.12149595,0.7826346,449.34181)">
      <rect
         ry="8.9725237"
         y="385.59894"
         x="274.67804"
         height="17.945047"
         width="31.837988"
         id="rect4172"
         style="color:#000000;display:inline;overflow:visible;visibility:visible;opacity:1;fill:#121c21;fill-opacity:1;fill-rule:evenodd;stroke:#dfeff7;stroke-width:2;stroke-linecap:butt;stroke-linejoin:miter;stroke-miterlimit:4;stroke-dasharray:none;stroke-dashoffset:0;stroke-opacity:1;marker:none;enable-background:accumulate" />
      <rect
         transform="scale(-1,1)"
         ry="8.9725237"
         y="385.59894"
         x="-239.32961"
         height="17.945047"
         width="31.837988"
         id="rect4172-1"
         style="color:#000000;display:inline;overflow:visible;visibility:visible;opacity:1;fill:#121c21;fill-opacity:1;fill-rule:evenodd;stroke:#dfeff7;stroke-width:2;stroke-linecap:butt;stroke-linejoin:miter;stroke-miterlimit:4;stroke-dasharray:none;stroke-dashoffset:0;stroke-opacity:1;marker:none;enable-background:accumulate" />
    </g>
    <g
       style="display:inline;stroke:#b7dbed;stroke-opacity:0.54958677"
       aria-label="touch"
       id="text4687"
       transform="matrix(0.12149595,0,0,0.12149595,0.90459493,449.34181)">
      <path
         d="m 210.84844,448.69237 h 7.88 v 3.12 h -7.88 v 9.6 q 0,1.56 0.24,2.6 0.24,1 0.72,1.6 0.48,0.56 1.2,0.8 0.72,0.24 1.68,0.24 1.68,0 2.68,-0.36 1.04,-0.4 1.44,-0.56 l 0.72,3.08 q -0.56,0.28 -1.96,0.68 -1.4,0.44 -3.2,0.44 -2.12,0 -3.52,-0.52 -1.36,-0.56 -2.2,-1.64 -0.84,-1.08 -1.2,-2.64 -0.32,-1.6 -0.32,-3.68 v -18.56 l 3.72,-0.64 z"
         style="font-style:normal;font-variant:normal;font-weight:normal;font-stretch:normal;font-family:Ubuntu;-inkscape-font-specification:Ubuntu;fill:none;stroke:#b7dbed;stroke-width:2;stroke-miterlimit:4;stroke-dasharray:none;stroke-opacity:0.54958677"
         id="path4701"
         inkscape:connector-curvature="0" />
      <path
         d="m 241.27532,459.09237 q 0,2.48 -0.72,4.48 -0.72,2 -2.04,3.44 -1.28,1.44 -3.08,2.24 -1.8,0.76 -3.92,0.76 -2.12,0 -3.92,-0.76 -1.8,-0.8 -3.12,-2.24 -1.28,-1.44 -2,-3.44 -0.72,-2 -0.72,-4.48 0,-2.44 0.72,-4.44 0.72,-2.04 2,-3.48 1.32,-1.44 3.12,-2.2 1.8,-0.8 3.92,-0.8 2.12,0 3.92,0.8 1.8,0.76 3.08,2.2 1.32,1.44 2.04,3.48 0.72,2 0.72,4.44 z m -3.88,0 q 0,-3.52 -1.6,-5.56 -1.56,-2.08 -4.28,-2.08 -2.72,0 -4.32,2.08 -1.56,2.04 -1.56,5.56 0,3.52 1.56,5.6 1.6,2.04 4.32,2.04 2.72,0 4.28,-2.04 1.6,-2.08 1.6,-5.6 z"
         style="font-style:normal;font-variant:normal;font-weight:normal;font-stretch:normal;font-family:Ubuntu;-inkscape-font-specification:Ubuntu;fill:none;stroke:#b7dbed;stroke-width:2;stroke-miterlimit:4;stroke-dasharray:none;stroke-opacity:0.54958677"
         id="path4703"
         inkscape:connector-curvature="0" />
      <path
         d="m 263.06907,468.89237 q -1.28,0.32 -3.4,0.68 -2.08,0.36 -4.84,0.36 -2.4,0 -4.04,-0.68 -1.64,-0.72 -2.64,-2 -1,-1.28 -1.44,-3 -0.44,-1.76 -0.44,-3.88 v -11.68 h 3.72 v 10.88 q 0,3.8 1.2,5.44 1.2,1.64 4.04,1.64 0.6,0 1.24,-0.04 0.64,-0.04 1.2,-0.08 0.56,-0.08 1,-0.12 0.48,-0.08 0.68,-0.16 v -17.56 h 3.72 z"
         style="font-style:normal;font-variant:normal;font-weight:normal;font-stretch:normal;font-family:Ubuntu;-inkscape-font-specification:Ubuntu;fill:none;stroke:#b7dbed;stroke-width:2;stroke-miterlimit:4;stroke-dasharray:none;stroke-opacity:0.54958677"
         id="path4705"
         inkscape:connector-curvature="0" />
      <path
         d="m 278.51782,469.97237 q -2.52,0 -4.44,-0.8 -1.88,-0.8 -3.2,-2.24 -1.28,-1.44 -1.92,-3.4 -0.64,-2 -0.64,-4.4 0,-2.4 0.68,-4.4 0.72,-2 2,-3.44 1.28,-1.48 3.12,-2.28 1.88,-0.84 4.16,-0.84 1.4,0 2.8,0.24 1.4,0.24 2.68,0.76 l -0.84,3.16 q -0.84,-0.4 -1.96,-0.64 -1.08,-0.24 -2.32,-0.24 -3.12,0 -4.8,1.96 -1.64,1.96 -1.64,5.72 0,1.68 0.36,3.08 0.4,1.4 1.2,2.4 0.84,1 2.12,1.56 1.28,0.52 3.12,0.52 1.48,0 2.68,-0.28 1.2,-0.28 1.88,-0.6 l 0.52,3.12 q -0.32,0.2 -0.92,0.4 -0.6,0.16 -1.36,0.28 -0.76,0.16 -1.64,0.24 -0.84,0.12 -1.64,0.12 z"
         style="font-style:normal;font-variant:normal;font-weight:normal;font-stretch:normal;font-family:Ubuntu;-inkscape-font-specification:Ubuntu;fill:none;stroke:#b7dbed;stroke-width:2;stroke-miterlimit:4;stroke-dasharray:none;stroke-opacity:0.54958677"
         id="path4707"
         inkscape:connector-curvature="0" />
      <path
         d="m 288.07157,469.49237 v -30.4 l 3.72,-0.64 v 10.64 q 1.04,-0.4 2.2,-0.6 1.2,-0.24 2.36,-0.24 2.48,0 4.12,0.72 1.64,0.68 2.6,1.96 1,1.24 1.4,3 0.4,1.76 0.4,3.88 v 11.68 h -3.72 v -10.88 q 0,-1.92 -0.28,-3.28 -0.24,-1.36 -0.84,-2.2 -0.6,-0.84 -1.6,-1.2 -1,-0.4 -2.48,-0.4 -0.6,0 -1.24,0.08 -0.64,0.08 -1.24,0.2 -0.56,0.08 -1.04,0.2 -0.44,0.12 -0.64,0.2 v 17.28 z"
         style="font-style:normal;font-variant:normal;font-weight:normal;font-stretch:normal;font-family:Ubuntu;-inkscape-font-specification:Ubuntu;fill:none;stroke:#b7dbed;stroke-width:2;stroke-miterlimit:4;stroke-dasharray:none;stroke-opacity:0.54958677"
         id="path4709"
         inkscape:connector-curvature="0" />
    </g>
    <rect
       style="fill:#242424;fill-opacity:1;stroke:none;stroke-width:0.97196758;stroke-miterlimit:4;stroke-dasharray:none;stroke-opacity:1"
       ry="2.0547922"
       y="456.87177"
       x="5.6296782"
       height="31.296007"
       width="53.08049"
       id="rect4712"
       rx="2.0547922" />
    <rect
       id="rect4621"
       width="49.670071"
       height="28.539185"
       x="7.1921782"
       y="458.25018"
       ry="0.50507629"
       style="fill:#b6b6b6;fill-opacity:1;stroke:none;stroke-width:0.54673177;stroke-miterlimit:4;stroke-dasharray:none;stroke-opacity:1" />
  </g>
</svg>
