<?xml version="1.0" encoding="UTF-8" standalone="no"?>
<!-- Created with Inkscape (http://www.inkscape.org/) -->

<svg
   xmlns:dc="http://purl.org/dc/elements/1.1/"
   xmlns:cc="http://creativecommons.org/ns#"
   xmlns:rdf="http://www.w3.org/1999/02/22-rdf-syntax-ns#"
   xmlns:svg="http://www.w3.org/2000/svg"
   xmlns="http://www.w3.org/2000/svg"
   xmlns:xlink="http://www.w3.org/1999/xlink"
   xmlns:sodipodi="http://sodipodi.sourceforge.net/DTD/sodipodi-0.dtd"
   xmlns:inkscape="http://www.inkscape.org/namespaces/inkscape"
   width="512"
   height="512"
   viewBox="0 0 512 512"
   id="svg2"
   version="1.1"
   inkscape:version="0.92.2 5c3e80d, 2017-08-06"
   sodipodi:docname="retrotouch.svg">
  <defs
     id="defs4">
    <linearGradient
       inkscape:collect="always"
       id="linearGradient4637">
      <stop
         style="stop-color:#c2fff6;stop-opacity:1;"
         offset="0"
         id="stop4633" />
      <stop
         style="stop-color:#c2fff6;stop-opacity:0;"
         offset="1"
         id="stop4635" />
    </linearGradient>
    <filter
       style="color-interpolation-filters:sRGB"
       id="filter3798"
       inkscape:label="Glow"
       inkscape:menu="Shadows and Glows"
       inkscape:menu-tooltip="Glow of object's own color at the edges">
      <feGaussianBlur
         id="feGaussianBlur3800"
         stdDeviation="5"
         result="result91" />
      <feComposite
         id="feComposite3802"
         in2="result91"
         in="SourceGraphic"
         operator="over" />
    </filter>
    <linearGradient
       id="linearGradient3759">
      <stop
         style="stop-color:#ffffff;stop-opacity:1;"
         offset="0"
         id="stop3761" />
      <stop
         style="stop-color:#ffffff;stop-opacity:0;"
         offset="1"
         id="stop3763" />
    </linearGradient>
    <filter
       style="color-interpolation-filters:sRGB"
       id="filter4192"
       inkscape:label="Glow"
       inkscape:menu="Shadows and Glows"
       inkscape:menu-tooltip="Glow of object's own color at the edges">
      <feGaussianBlur
         id="feGaussianBlur4194"
         stdDeviation="5"
         result="result91" />
      <feComposite
         id="feComposite4196"
         in2="result91"
         in="SourceGraphic"
         operator="over" />
    </filter>
    <filter
       style="color-interpolation-filters:sRGB"
       id="filter3798-5"
       inkscape:label="Glow"
       inkscape:menu="Shadows and Glows"
       inkscape:menu-tooltip="Glow of object's own color at the edges">
      <feGaussianBlur
         id="feGaussianBlur3800-8"
         stdDeviation="5"
         result="result91" />
      <feComposite
         id="feComposite3802-8"
         in2="result91"
         in="SourceGraphic"
         operator="over" />
    </filter>
    <filter
       style="color-interpolation-filters:sRGB"
       id="filter3798-5-2"
       inkscape:label="Glow"
       inkscape:menu="Shadows and Glows"
       inkscape:menu-tooltip="Glow of object's own color at the edges">
      <feGaussianBlur
         id="feGaussianBlur3800-8-4"
         stdDeviation="5"
         result="result91" />
      <feComposite
         id="feComposite3802-8-9"
         in2="result91"
         in="SourceGraphic"
         operator="over" />
    </filter>
    <linearGradient
       inkscape:collect="always"
       xlink:href="#linearGradient4637"
       id="linearGradient4639"
       x1="588.89087"
       y1="40.057217"
       x2="583.82715"
       y2="102.59491"
       gradientUnits="userSpaceOnUse"
       gradientTransform="translate(-160)" />
  </defs>
  <sodipodi:namedview
     id="base"
     pagecolor="#ffffff"
     bordercolor="#666666"
     borderopacity="1.0"
     inkscape:pageopacity="0.0"
     inkscape:pageshadow="2"
     inkscape:zoom="1.979899"
     inkscape:cx="214.49971"
     inkscape:cy="74.969205"
     inkscape:document-units="px"
     inkscape:current-layer="layer3"
     showgrid="false"
     units="px"
     inkscape:window-width="1547"
     inkscape:window-height="968"
     inkscape:window-x="1038"
     inkscape:window-y="51"
     inkscape:window-maximized="0"
     fit-margin-top="0"
     fit-margin-left="0"
     fit-margin-right="0"
     fit-margin-bottom="0" />
  <metadata
     id="metadata7">
    <rdf:RDF>
      <cc:Work
         rdf:about="">
        <dc:format>image/svg+xml</dc:format>
        <dc:type
           rdf:resource="http://purl.org/dc/dcmitype/StillImage" />
        <dc:title></dc:title>
      </cc:Work>
    </rdf:RDF>
  </metadata>
  <g
     inkscape:label="Background"
     inkscape:groupmode="layer"
     id="layer1"
     transform="translate(-240.24047,-296.63652)"
     style="display:inline">
    <path
       style="fill:#0c2431;fill-opacity:1;fill-rule:evenodd;stroke:#4fb7cd;stroke-width:7;stroke-linecap:butt;stroke-linejoin:miter;stroke-miterlimit:4;stroke-dasharray:none;stroke-opacity:1"
       d="m 480.8117,316.18167 c -37.49688,0.52965 -116.66275,-0.1994 -151.35046,1.73786 -24.57199,1.47791 -32.77719,1.65981 -54.97585,13.98769 -11.29616,6.27343 -21.30848,16.38283 -25.9408,25.98319 -10.25989,30.18438 -4.33673,88.45725 -4.33673,178.43999 -1.00698,32.53038 -4.6104,213.16015 16.27658,235.34383 16.24989,15.193 26.58313,22.54124 235.75592,22.54121 209.17279,-3e-5 219.50625,-7.34828 235.75613,-22.54127 20.88698,-22.18368 17.28356,-202.81346 16.27659,-235.34383 0,-84.03114 5.92352,-148.25555 -4.33661,-178.43993 -4.63208,-9.60036 -14.64463,-19.70976 -25.94079,-25.98319 -22.19865,-12.32745 -62.36381,-12.7641 -86.93559,-14.24201 -34.68053,-1.94329 -111.61924,-0.95988 -149.06158,-1.48353 -0.39976,-0.006 -0.78692,0.006 -1.18689,0 z"
       id="path4166-6"
       inkscape:connector-curvature="0"
       sodipodi:nodetypes="ccccccccccccccc" />
    <path
       style="fill:#080f21;fill-opacity:1;fill-rule:evenodd;stroke:#4fb7cd;stroke-width:7;stroke-linecap:butt;stroke-linejoin:miter;stroke-miterlimit:4;stroke-dasharray:none;stroke-opacity:1"
       d="m 729.63326,339.56155 c -2.75096,-9.83843 -5.26168,-26.68014 -39.29514,-31.58243 -14.12699,-1.95753 -33.5762,-5.33741 -51.7795,-3.88858 -6.75869,0.816 -9.3063,9.15959 -11.06221,13.01975 33.08204,2.10727 77.76538,1.76221 102.13685,22.45126 z"
       id="RB"
       inkscape:connector-curvature="0"
       sodipodi:nodetypes="ccccc" />
    <path
       style="fill:#080f21;fill-opacity:1;fill-rule:evenodd;stroke:#4fb7cd;stroke-width:7;stroke-linecap:butt;stroke-linejoin:miter;stroke-miterlimit:4;stroke-dasharray:none;stroke-opacity:1"
       d="m 260.39356,339.56155 c 2.75096,-9.83843 5.2619,-26.68014 39.29536,-31.58243 14.12655,-1.95753 33.57598,-5.33741 51.7795,-3.88858 6.75847,0.816 9.30608,9.15959 11.06199,13.01975 -33.08204,2.10727 -77.76538,1.76221 -102.13685,22.45126 z"
       id="LB"
       inkscape:connector-curvature="0"
       sodipodi:nodetypes="ccccc"
       LT="path4420-4" />
  </g>
  <g
     inkscape:groupmode="layer"
     id="layer3"
     inkscape:label="Buttons"
     style="display:inline">
    <g
       id="g4679"
       transform="translate(-3.8655709)">
      <g
         transform="translate(-360.24047,-156.63652)"
         id="g4557"
         style="display:inline">
        <path
           inkscape:connector-curvature="0"
           style="color:#000000;display:inline;overflow:visible;visibility:visible;opacity:1;fill:#080f21;fill-opacity:1;fill-rule:evenodd;stroke:#4fb7cd;stroke-width:4;stroke-linecap:butt;stroke-linejoin:miter;stroke-miterlimit:4;stroke-dasharray:none;stroke-dashoffset:0;stroke-opacity:1;marker:none;enable-background:accumulate"
           d="m 478.15228,552.42752 a 40.917964,40.406495 0 0 1 -40.91802,40.40651 40.917964,40.406495 0 0 1 -40.91803,-40.40651 40.917964,40.406495 0 0 1 40.91803,-40.40651 40.917964,40.406495 0 0 1 40.91802,40.40651 z"
           id="path4168-1" />
        <ellipse
           style="color:#000000;display:inline;overflow:visible;visibility:visible;opacity:1;fill:#080f21;fill-opacity:1;fill-rule:evenodd;stroke:#4fb7cd;stroke-width:6.30857086;stroke-linecap:butt;stroke-linejoin:miter;stroke-miterlimit:4;stroke-dasharray:none;stroke-dashoffset:0;stroke-opacity:1;marker:none;enable-background:accumulate"
           id="path4168-1-2"
           cx="437.09177"
           cy="552.40436"
           rx="29.228086"
           ry="28.86274" />
      </g>
      <circle
         style="color:#000000;display:inline;overflow:visible;visibility:visible;opacity:1;fill:#080f21;fill-opacity:1;fill-rule:evenodd;stroke:#4fb7cd;stroke-width:4;stroke-linecap:butt;stroke-linejoin:miter;stroke-miterlimit:4;stroke-dasharray:none;stroke-dashoffset:0;stroke-opacity:1;marker:none;enable-background:accumulate"
         id="RPAD"
         cx="425.00562"
         cy="403.43518"
         r="58.127277" />
    </g>
    <g
       id="g4683"
       transform="translate(-1.0038223)">
      <rect
         ry="8.9725237"
         y="385.59894"
         x="274.67804"
         height="17.945047"
         width="31.837988"
         id="rect4172"
         style="color:#000000;display:inline;overflow:visible;visibility:visible;opacity:1;fill:#080f21;fill-opacity:1;fill-rule:evenodd;stroke:#4fb7cd;stroke-width:2;stroke-linecap:butt;stroke-linejoin:miter;stroke-miterlimit:4;stroke-dasharray:none;stroke-dashoffset:0;stroke-opacity:1;marker:none;enable-background:accumulate" />
      <rect
         transform="scale(-1,1)"
         ry="8.9725237"
         y="385.59894"
         x="-239.32961"
         height="17.945047"
         width="31.837988"
         id="rect4172-1"
         style="color:#000000;display:inline;overflow:visible;visibility:visible;opacity:1;fill:#080f21;fill-opacity:1;fill-rule:evenodd;stroke:#4fb7cd;stroke-width:2;stroke-linecap:butt;stroke-linejoin:miter;stroke-miterlimit:4;stroke-dasharray:none;stroke-dashoffset:0;stroke-opacity:1;marker:none;enable-background:accumulate" />
    </g>
    <g
       aria-label="touch"
       id="text4687">
      <path
         d="m 210.84844,448.69237 h 7.88 v 3.12 h -7.88 v 9.6 q 0,1.56 0.24,2.6 0.24,1 0.72,1.6 0.48,0.56 1.2,0.8 0.72,0.24 1.68,0.24 1.68,0 2.68,-0.36 1.04,-0.4 1.44,-0.56 l 0.72,3.08 q -0.56,0.28 -1.96,0.68 -1.4,0.44 -3.2,0.44 -2.12,0 -3.52,-0.52 -1.36,-0.56 -2.2,-1.64 -0.84,-1.08 -1.2,-2.64 -0.32,-1.6 -0.32,-3.68 v -18.56 l 3.72,-0.64 z"
         style="font-style:normal;font-variant:normal;font-weight:normal;font-stretch:normal;font-family:Ubuntu;-inkscape-font-specification:Ubuntu;fill:none;stroke:#4fb7cd;stroke-opacity:0.66942149;stroke-width:2;stroke-miterlimit:4;stroke-dasharray:none"
         id="path4701"
         inkscape:connector-curvature="0" />
      <path
         d="m 241.27532,459.09237 q 0,2.48 -0.72,4.48 -0.72,2 -2.04,3.44 -1.28,1.44 -3.08,2.24 -1.8,0.76 -3.92,0.76 -2.12,0 -3.92,-0.76 -1.8,-0.8 -3.12,-2.24 -1.28,-1.44 -2,-3.44 -0.72,-2 -0.72,-4.48 0,-2.44 0.72,-4.44 0.72,-2.04 2,-3.48 1.32,-1.44 3.12,-2.2 1.8,-0.8 3.92,-0.8 2.12,0 3.92,0.8 1.8,0.76 3.08,2.2 1.32,1.44 2.04,3.48 0.72,2 0.72,4.44 z m -3.88,0 q 0,-3.52 -1.6,-5.56 -1.56,-2.08 -4.28,-2.08 -2.72,0 -4.32,2.08 -1.56,2.04 -1.56,5.56 0,3.52 1.56,5.6 1.6,2.04 4.32,2.04 2.72,0 4.28,-2.04 1.6,-2.08 1.6,-5.6 z"
         style="font-style:normal;font-variant:normal;font-weight:normal;font-stretch:normal;font-family:Ubuntu;-inkscape-font-specification:Ubuntu;fill:none;stroke:#4fb7cd;stroke-opacity:0.66942149;stroke-width:2;stroke-miterlimit:4;stroke-dasharray:none"
         id="path4703"
         inkscape:connector-curvature="0" />
      <path
         d="m 263.06907,468.89237 q -1.28,0.32 -3.4,0.68 -2.08,0.36 -4.84,0.36 -2.4,0 -4.04,-0.68 -1.64,-0.72 -2.64,-2 -1,-1.28 -1.44,-3 -0.44,-1.76 -0.44,-3.88 v -11.68 h 3.72 v 10.88 q 0,3.8 1.2,5.44 1.2,1.64 4.04,1.64 0.6,0 1.24,-0.04 0.64,-0.04 1.2,-0.08 0.56,-0.08 1,-0.12 0.48,-0.08 0.68,-0.16 v -17.56 h 3.72 z"
         style="font-style:normal;font-variant:normal;font-weight:normal;font-stretch:normal;font-family:Ubuntu;-inkscape-font-specification:Ubuntu;fill:none;stroke:#4fb7cd;stroke-opacity:0.66942149;stroke-width:2;stroke-miterlimit:4;stroke-dasharray:none"
         id="path4705"
         inkscape:connector-curvature="0" />
      <path
         d="m 278.51782,469.97237 q -2.52,0 -4.44,-0.8 -1.88,-0.8 -3.2,-2.24 -1.28,-1.44 -1.92,-3.4 -0.64,-2 -0.64,-4.4 0,-2.4 0.68,-4.4 0.72,-2 2,-3.44 1.28,-1.48 3.12,-2.28 1.88,-0.84 4.16,-0.84 1.4,0 2.8,0.24 1.4,0.24 2.68,0.76 l -0.84,3.16 q -0.84,-0.4 -1.96,-0.64 -1.08,-0.24 -2.32,-0.24 -3.12,0 -4.8,1.96 -1.64,1.96 -1.64,5.72 0,1.68 0.36,3.08 0.4,1.4 1.2,2.4 0.84,1 2.12,1.56 1.28,0.52 3.12,0.52 1.48,0 2.68,-0.28 1.2,-0.28 1.88,-0.6 l 0.52,3.12 q -0.32,0.2 -0.92,0.4 -0.6,0.16 -1.36,0.28 -0.76,0.16 -1.64,0.24 -0.84,0.12 -1.64,0.12 z"
         style="font-style:normal;font-variant:normal;font-weight:normal;font-stretch:normal;font-family:Ubuntu;-inkscape-font-specification:Ubuntu;fill:none;stroke:#4fb7cd;stroke-opacity:0.66942149;stroke-width:2;stroke-miterlimit:4;stroke-dasharray:none"
         id="path4707"
         inkscape:connector-curvature="0" />
      <path
         d="m 288.07157,469.49237 v -30.4 l 3.72,-0.64 v 10.64 q 1.04,-0.4 2.2,-0.6 1.2,-0.24 2.36,-0.24 2.48,0 4.12,0.72 1.64,0.68 2.6,1.96 1,1.24 1.4,3 0.4,1.76 0.4,3.88 v 11.68 h -3.72 v -10.88 q 0,-1.92 -0.28,-3.28 -0.24,-1.36 -0.84,-2.2 -0.6,-0.84 -1.6,-1.2 -1,-0.4 -2.48,-0.4 -0.6,0 -1.24,0.08 -0.64,0.08 -1.24,0.2 -0.56,0.08 -1.04,0.2 -0.44,0.12 -0.64,0.2 v 17.28 z"
         style="font-style:normal;font-variant:normal;font-weight:normal;font-stretch:normal;font-family:Ubuntu;-inkscape-font-specification:Ubuntu;fill:none;stroke:#4fb7cd;stroke-opacity:0.66942149;stroke-width:2;stroke-miterlimit:4;stroke-dasharray:none"
         id="path4709"
         inkscape:connector-curvature="0" />
    </g>
  </g>
  <g
     inkscape:groupmode="layer"
     id="layer2"
     inkscape:label="Screen"
     style="display:inline">
    <rect
       id="rect4621"
       width="436.89099"
       height="257.5889"
       x="38.890869"
       y="61.977047"
       ry="25.731077"
       style="fill:#03080c;fill-opacity:1;stroke:#538296;stroke-width:4.5;stroke-miterlimit:4;stroke-dasharray:none;stroke-opacity:1" />
    <rect
       style="fill:url(#linearGradient4639);fill-opacity:1;stroke:none;stroke-width:4.5;stroke-miterlimit:4;stroke-dasharray:none;stroke-opacity:1"
       ry="25.731077"
       y="61.977051"
       x="38.890869"
       height="257.5889"
       width="436.89099"
       id="rect4631" />
    <rect
       style="fill:none;fill-opacity:1;stroke:#4fb7cd;stroke-width:8;stroke-miterlimit:4;stroke-dasharray:none;stroke-opacity:1"
       ry="25.731077"
       y="61.977051"
       x="38.890869"
       height="257.5889"
       width="436.89099"
       id="rect4712" />
  </g>
</svg>
